<?xml version="1.0" standalone="no"?>
<!DOCTYPE svg PUBLIC "-//W3C//DTD SVG 20010904//EN"
 "http://www.w3.org/TR/2001/REC-SVG-20010904/DTD/svg10.dtd">
<svg version="1.0" xmlns="http://www.w3.org/2000/svg"
 width="695.000000pt" height="695.000000pt" viewBox="0 0 695.000000 695.000000"
 preserveAspectRatio="xMidYMid meet">
<metadata>
Created by potrace 1.14, written by Peter Selinger 2001-2017
</metadata>
<g transform="translate(0.000000,695.000000) scale(0.100000,-0.100000)"
fill="#000000" stroke="none">
<path d="M1745 6752 c-33 -59 -61 -112 -63 -119 -2 -7 -8 -13 -13 -13 -5 0 -9
-4 -9 -9 0 -5 -39 -75 -86 -157 -47 -82 -149 -259 -226 -394 -78 -135 -178
-309 -224 -388 -46 -79 -84 -147 -84 -152 0 -6 -4 -10 -10 -10 -5 0 -10 -4
-10 -9 0 -5 -23 -49 -51 -98 -29 -48 -62 -106 -74 -128 -13 -22 -47 -80 -75
-130 -113 -192 -123 -210 -123 -220 0 -5 75 -140 167 -300 300 -518 321 -555
529 -915 112 -195 214 -371 225 -390 12 -19 27 -46 35 -61 14 -27 217 -379
400 -694 61 -104 119 -206 130 -225 19 -34 224 -390 265 -460 11 -19 33 -57
48 -85 15 -27 42 -74 60 -103 19 -29 34 -54 34 -57 0 -2 35 -64 78 -137 43
-74 81 -140 85 -148 4 -8 11 -22 17 -30 5 -8 56 -96 113 -195 208 -362 530
-920 548 -950 10 -16 23 -40 29 -52 5 -13 13 -23 18 -23 5 0 84 132 177 293
93 160 226 391 295 512 70 121 178 308 240 415 62 107 122 211 132 230 11 19
81 141 156 270 74 129 143 249 152 265 33 56 242 419 378 655 75 129 210 363
300 520 91 157 172 299 182 315 63 109 296 515 339 588 28 49 51 93 51 98 0 5
5 9 10 9 6 0 10 4 10 10 0 5 22 47 49 92 74 127 312 541 314 548 2 5 -39 82
-84 160 -12 19 -91 157 -176 305 -85 149 -163 281 -171 295 -9 14 -17 27 -17
30 0 3 -8 16 -17 30 -8 14 -69 117 -133 230 -65 113 -126 218 -136 235 -10 16
-24 41 -32 55 -7 14 -67 117 -132 230 -156 269 -161 278 -187 328 -12 23 -25
42 -29 42 -4 0 -40 -57 -81 -127 -40 -71 -77 -136 -83 -145 -10 -17 -76 -131
-106 -183 -120 -211 -190 -332 -199 -342 -5 -7 -10 -14 -10 -17 0 -2 -23 -44
-51 -93 -29 -48 -62 -106 -74 -128 -13 -22 -46 -80 -75 -130 -29 -49 -60 -103
-70 -120 -27 -48 -94 -165 -105 -183 -6 -9 -37 -64 -70 -122 -33 -57 -64 -112
-70 -121 -5 -10 -30 -53 -55 -96 -25 -43 -49 -86 -55 -95 -34 -58 -122 -212
-147 -258 -17 -30 -36 -62 -42 -70 -7 -8 -25 -40 -40 -70 -16 -30 -34 -62 -40
-70 -6 -8 -20 -30 -30 -49 -11 -19 -74 -131 -142 -248 l-122 -214 -35 58 c-19
32 -44 74 -55 93 -10 19 -61 107 -112 195 -51 88 -107 185 -123 215 -16 30
-33 60 -37 65 -4 6 -34 55 -65 110 -32 55 -92 159 -133 230 -41 72 -85 148
-97 170 -12 22 -45 78 -72 125 -51 87 -421 728 -456 790 -11 19 -43 76 -72
125 -52 89 -299 517 -337 585 -35 62 -73 120 -78 120 -3 -1 -32 -49 -65 -108z
m3612 -747 c105 -181 201 -348 213 -370 12 -22 80 -139 150 -260 70 -121 139
-240 153 -265 14 -25 43 -76 66 -114 34 -58 38 -72 29 -90 -6 -12 -36 -64 -66
-116 -59 -102 -71 -122 -145 -251 -26 -46 -58 -103 -72 -127 -63 -108 -435
-752 -457 -792 -14 -25 -45 -79 -69 -120 -24 -41 -53 -92 -64 -112 -15 -30
-22 -35 -31 -25 -7 6 -98 163 -204 347 -106 184 -216 376 -245 425 -112 193
-314 543 -345 600 l-32 60 87 150 c48 83 97 168 110 190 22 40 63 110 228 395
49 85 101 175 115 200 14 25 73 128 132 230 59 102 115 199 124 215 9 17 30
53 47 80 16 28 37 65 46 82 15 29 18 31 28 15 7 -9 98 -165 202 -347z m-3405
125 c71 -124 140 -243 152 -265 13 -22 44 -75 70 -118 25 -43 46 -80 46 -82 0
-2 21 -39 46 -82 26 -43 55 -93 65 -110 11 -18 29 -50 41 -70 12 -21 38 -67
58 -103 44 -79 269 -468 283 -491 8 -13 -16 -63 -113 -230 -67 -118 -130 -227
-140 -244 -9 -16 -68 -118 -130 -225 -62 -107 -123 -213 -135 -235 -36 -64
-125 -219 -136 -235 -5 -8 -45 -77 -88 -153 -84 -146 -81 -144 -118 -77 -29
50 -200 348 -268 465 -32 55 -69 118 -81 141 -12 22 -34 59 -48 82 -14 23 -26
44 -26 47 0 3 -11 22 -24 43 -22 34 -225 386 -276 477 -12 22 -52 90 -87 152
l-65 112 19 28 c11 15 34 53 50 83 17 30 96 168 175 305 80 138 156 270 170
295 14 25 83 144 153 265 162 279 177 305 223 387 20 38 41 67 46 65 5 -2 67
-104 138 -227z"/>
</g>
</svg>
